<?xml version="1.0" standalone="no"?><!DOCTYPE svg PUBLIC "-//W3C//DTD SVG 1.1//EN" "http://www.w3.org/Graphics/SVG/1.1/DTD/svg11.dtd"><svg t="1584178943215" class="icon" viewBox="0 0 1024 1024" version="1.1" xmlns="http://www.w3.org/2000/svg" p-id="2622" xmlns:xlink="http://www.w3.org/1999/xlink" width="200" height="200"><defs><style type="text/css"></style></defs><path d="M422 470.6h379v314.6H422z" fill="#57C0EE" p-id="2623"></path><path d="M801 478.8H312.8c-54.2 0-98.2-44-98.2-98.2v-51.2c0-54.2 44-98.2 98.2-98.2h20.4c53.6 0 97.2 44 97.2 98.2v25.8c0 33.6-26 60-59.2 60h-32.4c-33 0-60-27-60-60s27-60 60-60h20.2v16.8h-20.2c-23.8 0-43.2 19.4-43.2 43.2 0 23.8 19.4 43.2 43.2 43.2h32.4c23.8 0 42.4-19 42.4-43.2v-25.8c0-44.8-36.2-81.4-80.6-81.4h-20.4c-44.8 0-81.4 36.6-81.4 81.4v51.2c0 44.8 36.6 81.4 81.4 81.4h488.4v16.8z" fill="#434244" p-id="2624"></path><path d="M223.8 436.4H422v348.6h-111.4c-48 0-86.8-38.8-86.8-86.8V436.4z" fill="#40A3DB" p-id="2625"></path><path d="M215.4 710.4V326c0-11.8 2.8-23.8 8.2-34.2 19.2-38 57.2-61.2 99.2-61.2s80 23.2 99 60.8c5.6 10.8 8.4 23 8.4 35.2v305l-16.6 1.4c-0.4-2.6-11.4-64.6-77.2-70.2h-24.8c-10.8 0-65.2 3.4-79.6 70.6l-16.6 77z m121.4-164.4h0.6c39.8 3.2 62.8 24.2 76.2 44.2V326.6c0-9.6-2.2-19.2-6.6-27.6-16.4-32.2-47.8-51.6-84-51.6s-67.6 19.2-84 51.6c-4.4 8.6-6.6 18-6.6 27.2v262.8c27.4-41.4 73.2-43 79.4-43h25z" fill="#434244" p-id="2626"></path><path d="M809.4 793.4H312.8c-54.2 0-98.2-44-98.2-98.2V644c0-54.2 44-98.2 98.2-98.2h20.4c54.2 0 98.2 44 98.2 98.2v25.8c0 33-27 60-60 60h-32.4c-33 0-60-27-60-60s27-60 60-60h20.2v16.8h-20.2c-23.8 0-43.2 19.4-43.2 43.2 0 23.8 19.4 43.2 43.2 43.2h32.4c23.8 0 43.2-19.4 43.2-43.2V644c0-44.8-36.6-81.4-81.4-81.4h-20.4c-44.8 0-81.4 36.6-81.4 81.4v51.2c0 44.8 36.6 81.4 81.4 81.4h480V478.8H422V462h387.4v331.4z" fill="#434244" p-id="2627"></path><path d="M223.8 631.6V326.6c0-11 2.6-21.8 7.6-31.4 38-74.8 145-74.8 183 0 5 9.8 7.6 20.6 7.6 31.4v305s-11.4-71.2-85.2-77.2h-24s-71.8-3.2-89 77.2z" fill="#57C0EE" p-id="2628"></path><path d="M249.4 348.4c-2.8 0-5.6-0.4-8.4-1.2-14.8-4.6-22.8-20.4-18.2-35 7.6-24.6 38.4-71.4 100.2-71.4 29.8 0 51.6 8.4 66.6 19.4 18.4 13.6 13.4 42.2-8.6 48.6l-1.8 0.6c-7.8 2.2-16.2 0.4-23-4.2-6.2-4.2-16.4-8.6-33.2-8.6-35 0-45.8 29.2-47 32.4-3.8 11.8-14.8 19.4-26.6 19.4z" fill="#A9DFF4" p-id="2629"></path><path d="M215.4 710.4V326.6c0-12.2 3-24.4 8.4-35.2 19-37.4 57-60.8 99-60.8s80 23.2 99 60.8c5.6 10.8 8.4 23 8.4 35.2v305l-16.6 1.4c-0.4-2.6-11.4-64.6-77.2-70.2h-24.8c-10.8 0-65.2 3.4-79.6 70.6l-16.6 77z m121.4-164.4h0.6c39.8 3.2 62.8 24.2 76.2 44.2V326.6c0-9.6-2.2-19.2-6.6-27.6-16.4-32.2-47.8-51.6-84-51.6s-67.6 19.2-84 51.6c-4.4 8.6-6.6 18.2-6.6 27.6v262.2c27.4-41.4 73.2-43 79.4-43h1.4l23.6 0.2z" fill="#434244" p-id="2630"></path></svg>