<?xml version="1.0" standalone="no"?><!DOCTYPE svg PUBLIC "-//W3C//DTD SVG 1.1//EN" "http://www.w3.org/Graphics/SVG/1.1/DTD/svg11.dtd"><svg t="1584178891113" class="icon" viewBox="0 0 1024 1024" version="1.1" xmlns="http://www.w3.org/2000/svg" p-id="3217" xmlns:xlink="http://www.w3.org/1999/xlink" width="200" height="200"><defs><style type="text/css"></style></defs><path d="M951.72 304.72l-92.94 21.56-175.34 7.14s-54.48 11.24-23.24 55.82l63.8 90.88c0.2 2.38 3.04 30.68 28.4 44.76 15.72 8.72 37.56 10.58 54.92-0.98 15.24-10.12 26.38-30.12 22-45.5 0 0-1.4-4.9-23.48-28.48l-77.86-66.58 139.38-16.94s38 14.8 63.7-20.68 29.16-37.32 29.16-37.32zM562.22 637.34l-102.86-144.9s-32.24-31.22-84.44-14.52L214.74 528l2.62 6.54-136 62-18.2 3.46a11 11 0 0 0 2.64 21.8l10.8-0.6s25.52 12.5 60-8.4c38-23.08 62 25.1 107.18-24.7 15.34-0.28 66.34-2.68 150.38-21.2 0 0 27.2 210.7 120.78 213.12 131.32 3.38 142.34-43.14 142.34-43.14s-71.82-23.1-95.06-99.54z" fill="#DCD3D4" p-id="3218"></path><path d="M244 476.62l24 60.14s53.4 1.24 155.34-21.2c0 0 49.58 260.98 143.2 260.98s120-91.02 120-91.02-71.82-23.14-95.06-99.6l-102.86-144.9s-32.22-31.22-84.42-14.5z" fill="#4966A2" p-id="3219"></path><path d="M250.94 476.62s97.42 49.7 215.04 11.88l3.34 8.7S369.6 540 273.6 535.6z" fill="#3D5890" p-id="3220"></path><path d="M425.38 524.9s66.22 396.22 244 201.2c0 0-144 65.22-210-222.68l-35.8 12.14z" fill="#3D5890" p-id="3221"></path><path d="M650.12 550l-56.88 41.2s28.32 88.72 93.34 94.32l55.04-45.08z" fill="#F3B5AF" p-id="3222"></path><path d="M212.34 487.96l31.7-11.34 24.08 62.74h-35.42l-20.36-51.4z" fill="#FFFFFF" p-id="3223"></path><path d="M870.44 276s33.52-50.82 90.98-16.52a77.52 77.52 0 0 1 37.12 73.58c-2.4 26.84-10.44 64.96-32.86 110.62a289.12 289.12 0 0 0-15.9 38.9c-10.48 32.68-37.56 95.26-86.4 73.4 0 0 29.2-18 23.38-64.22s28.76-81.88 28.76-81.88 50.4-71.08 1.58-108.4-49.36-25.28-49.36-25.28" fill="#4966A2" p-id="3224"></path><path d="M932 319c-22.4-34.24-61.56-43-61.56-43s-50.76 75.48-29.8 117.48a50.88 50.88 0 0 0 8.78 12.66l-21.32 29 54.8 44.6s11.76-45.18 26.28-63.76c1.54-0.52 2.42-0.88 2.42-0.88s52.9-46.58 20.4-96.1z" fill="#E08476" p-id="3225"></path><path d="M212.34 488s-167.76 72.66-188.74 82.9c0 0 13.1 27.76 92 0 0 0 34 10.9 68 7.56s44.62-49.74 44.62-49.74zM992.6 301.46l-92.94 21.54-175.32 7.16s-54.5 11.22-23.26 55.8l63.7 90.9c0.2 2.36 3.06 30.68 28.4 44.74 15.72 8.72 37.56 10.58 54.92-0.98 0.64-0.42 1.26-0.86 1.88-1.3 22.94-16.96 22.86-51.46 0.68-69.4l-4-3.28L768.76 380l139.38-16.96s38 14.8 63.7-20.68 29.16-37.32 29.16-37.32z" fill="#F3B5AF" p-id="3226"></path><path d="M752.18 458.88s-70.86 4-102 91.12l91.5 90.44s156.86-74.54 145.14-148.7a46.82 46.82 0 0 0-2.88-9.84 56.7 56.7 0 0 0-32.4-31.28c13.14 24.52 9.7 50-2.88 63-7.06 7.34-16.92 9.34-22.42 10.46-22.3 4.56-40.52-4.98-46.58-8.52 0 0-16.64-18-14.82-38.7z" fill="#FFEEF0" p-id="3227"></path><path d="M760.6 627.8l-16.2 14-91.18-93.8c16.24-45.36 43.2-68.18 65.32-79.64a103.82 103.82 0 0 0-21.54 63.16c0 42.74 38.48 70.74 63.6 96.28z" fill="#DCD3D4" p-id="3228"></path><path d="M925.68 765.54h72.16v24h-72.16zM12.5 765.54h72.16v24H12.5zM1000.56 275.8c-17.42-25.48-50-42.12-81.14-41.36A73.74 73.74 0 0 0 857.28 270l-0.54 0.82v0.14c-0.22 0.4-0.46 0.78-0.64 1.18l-2 4.34c-0.14 0.28-0.3 0.56-0.42 0.84L836 313.56 726.38 318c-1.08 0-2.16 0.12-3.22 0.22a45.2 45.2 0 0 0-37.42 27.46 47.3 47.3 0 0 0 5.64 47.38l40.64 58a130.28 130.28 0 0 0-80.64 68.64l-10.88 22.64-40 31.5-0.56 0.6a2.9 2.9 0 0 1-2.4 0.9 2.84 2.84 0 0 1-2.2-1.28l-89.66-130.96a82 82 0 0 0-91.6-32.3l-205.4 65.72c-3.32 1.06-6.62 2.24-9.82 3.52l-20 7.9-133.6 61.24-15.9 2.98a22.46 22.46 0 0 0 5.42 44.48l7.66-0.42a64.8 64.8 0 0 0 20.96 3.32c11.8 0 27.12-2.9 44.16-13.26 10.22-6.22 19.46-3.82 34.94 0.98 14.44 4.46 32.42 10 52.12 1.58a56 56 0 0 0 31.7-37.4l14.42 0.7h0.46c66 0.56 129.48-11.82 173.54-23.16l24.78 88.9a512 512 0 0 0 44.3 113.3 112 112 0 0 0 28.4 34.36H135.6v24h745.26v-24H649.18a122.42 122.42 0 0 0 41.5-56l6-16.58c6.14-4.7 22-16.88 43.22-32.84a1222.194 1222.194 0 0 1 88.46-60.7 188.84 188.84 0 0 0 36.38-29.6 51.02 51.02 0 0 0 37.8-0.22c20-7.86 33.76-26 38.74-40.54l2.3-5.78 53.34-129.62 0.12-0.28a239.7 239.7 0 0 0 15.66-71.9 70 70 0 0 0-12.14-45.68zM203.46 544a32.24 32.24 0 0 1-18.3 22.78c-11.58 4.98-22.7 1.54-35.56-2.46-15.4-4.76-34.54-10.68-54.52 1.46-26.18 15.9-44.82 7.8-45.46 7.52l-0.76-0.38 3.72-0.68 135.52-62.1 16.52-6.56 10.8 25.68a21.3 21.3 0 0 0-11.96 14.74zM920 258.44c22.88-0.58 48 12.16 60.74 30.9 0.22 0.34 0.4 0.66 0.62 0.98L934 302a83.44 83.44 0 0 0-28.54-22.52l-18-8.68a49.84 49.84 0 0 1 32.54-12.36z m-46.38 32.38l21.5 10.36a59.64 59.64 0 0 1 12 7.6l-9.12 2.28-34.74 1.4z m-632 237.32h-0.66l-13.62-32.38 10-3.24 14.26 35.62c-3.22 0.02-6.6 0.04-9.96 0z m426.48 173.18a98.56 98.56 0 0 1-63.8 60.54c-1.22 0.36-2.44 0.72-3.68 1.04a82.76 82.76 0 0 1-19.12 2.64h-3.36a85.36 85.36 0 0 1-73.18-45.7 486.88 486.88 0 0 1-42.24-108L438 522.64c21.54-6.26 34.92-11.18 36.48-11.76L466 488.4c-0.98 0.36-88.78 32.62-188.78 38.76l-16.82-42 160.74-51.46a58 58 0 0 1 64.76 22.88l89.66 130.98a27.82 27.82 0 0 0 6 6.26c6 16.82 30.78 75.42 89.66 99.02z m16.16-29.16c-42.7-15.22-65.7-54-75.48-75.2a26.98 26.98 0 0 0 7.78-5.26L649.22 566l76 75.08a5795.06 5795.06 0 0 0-40.94 31.08z m131.4-93.18a1291.46 1291.46 0 0 0-70.92 47.68l-80.12-79.18 8.38-17.44a106.24 106.24 0 0 1 73.74-58l6.44 9.2c1.16 8.4 5.68 29.16 22.4 42.9 10.3 8.48 23.1 12.76 38.16 12.76a89.42 89.42 0 0 0 12.4-0.9l-3.32-23.76c-13.52 1.88-24.24-0.32-31.88-6.54-12.8-10.42-14.2-29.38-14.2-29.5l-0.18-3.42-65.68-93.7-0.32-0.44a22.96 22.96 0 0 1-2.82-23.42 21.2 21.2 0 0 1 17.74-13.12l1.86-0.14 174-7.02 85.78-21.34h0.16a4.68 4.68 0 0 1 0.12 0.86 3.3 3.3 0 0 1-0.36 0.62c-2.68 2.4-16.9 13.5-28.38 22.46l-10.2 8a38 38 0 0 1-30.94 7.32l-8.96-1.8-161.16 19.6 2.9 23.82 12.14-1.48 86 70.76 1.26 0.62a43.88 43.88 0 0 1 21.8 24 42.54 42.54 0 0 1 1.58 5.08c0.22 3.68 0.58 6 0.64 6.38h0.4a44.16 44.16 0 0 1-6.66 27.86l-0.36 0.58a164.58 164.58 0 0 1-51.42 50.7zM872.88 404a49.22 49.22 0 0 1-22.58-21.76l57.36-6.96 5.18 1.04a61.42 61.42 0 0 0 9.68 1.14l-6 12.32a30.62 30.62 0 0 1-14.52 14.42 33.04 33.04 0 0 1-10.8 3.06 34 34 0 0 1-18.32-3.26z m12.62 27.38a119.24 119.24 0 0 0-8.58 22.88 67.34 67.34 0 0 0-15.34-10.86l-15.06-12.4 7.14-10.38a75.74 75.74 0 0 0 8.8 5 58.54 58.54 0 0 0 23.04 5.76z m-49.62-27.28l-8 11.6-32.54-26.78 30-3.66a71.42 71.42 0 0 0 10.54 18.84z m85.44 110.14l-2.46 6.22-0.24 0.62c-3.04 9.1-12.78 21.36-24.88 26.12a27.64 27.64 0 0 1-12 2q2.92-4 5.58-8.24l0.36-0.58a68.34 68.34 0 0 0 9.2-50.36c-0.62-12.98 0.9-44.98 26.74-71.32a54.22 54.22 0 0 0 14.58-18.52l6.52-13.52a79.86 79.86 0 0 0 5.22-14.38 62.7 62.7 0 0 0 13.32-8l10.18-8 11.9-9.3a223.18 223.18 0 0 1-10.7 37.48z" fill="#142546" p-id="3229"></path></svg>