<?xml version="1.0" standalone="no"?><!DOCTYPE svg PUBLIC "-//W3C//DTD SVG 1.1//EN" "http://www.w3.org/Graphics/SVG/1.1/DTD/svg11.dtd"><svg t="1584178873604" class="icon" viewBox="0 0 1024 1024" version="1.1" xmlns="http://www.w3.org/2000/svg" p-id="2628" xmlns:xlink="http://www.w3.org/1999/xlink" width="200" height="200"><defs><style type="text/css"></style></defs><path d="M398.54 768.84h226.94v50.56H398.54z" fill="#DCD3D4" p-id="2629"></path><path d="M398.78 718.26h226.94v50.56H398.78z" fill="#FFFFFF" p-id="2630"></path><path d="M727.34 713.72m19.32 0l3.4 0q19.32 0 19.32 19.32l0 23.52q0 19.32-19.32 19.32l-3.4 0q-19.32 0-19.32-19.32l0-23.52q0-19.32 19.32-19.32Z" fill="#F3B5AF" p-id="2631"></path><path d="M254.62 713.72m19.32 0l3.4 0q19.32 0 19.32 19.32l0 23.52q0 19.32-19.32 19.32l-3.4 0q-19.32 0-19.32-19.32l0-23.52q0-19.32 19.32-19.32Z" fill="#F3B5AF" p-id="2632"></path><path d="M676.38 657.16m23.52 0l4.14 0q23.52 0 23.52 23.52l0 125.76q0 23.52-23.52 23.52l-4.14 0q-23.52 0-23.52-23.52l0-125.76q0-23.52 23.52-23.52Z" fill="#F2463E" p-id="2633"></path><path d="M296.38 657.16m23.52 0l4.14 0q23.52 0 23.52 23.52l0 125.76q0 23.52-23.52 23.52l-4.14 0q-23.52 0-23.52-23.52l0-125.76q0-23.52 23.52-23.52Z" fill="#F2463E" p-id="2634"></path><path d="M347.58 632.52m23.52 0l4.14 0q23.52 0 23.52 23.52l0 175.02q0 23.52-23.52 23.52l-4.14 0q-23.52 0-23.52-23.52l0-175.02q0-23.52 23.52-23.52Z" fill="#4966A2" p-id="2635"></path><path d="M625.22 632.52m23.52 0l4.14 0q23.52 0 23.52 23.52l0 175.02q0 23.52-23.52 23.52l-4.14 0q-23.52 0-23.52-23.52l0-175.02q0-23.52 23.52-23.52Z" fill="#4966A2" p-id="2636"></path><path d="M750.32 700.48h-3.4a30.32 30.32 0 0 0-7.32 0.9v-20.72a35.56 35.56 0 0 0-35.6-35.5h-4a35.06 35.06 0 0 0-12.58 2.34 35.56 35.56 0 0 0-34.44-26.98h-4.16a35.56 35.56 0 0 0-35.6 35.48v50.22H410.78V656a35.56 35.56 0 0 0-35.52-35.52h-4.16a35.56 35.56 0 0 0-34.44 26.98 35.06 35.06 0 0 0-12.58-2.34H320a35.56 35.56 0 0 0-35.52 35.5v20.58a31.44 31.44 0 0 0-6.78-0.76h-3.5a31.34 31.34 0 0 0-31.3 31.32v23.52a31.34 31.34 0 0 0 31.3 31.3h3.42a30.24 30.24 0 0 0 6.78-0.76v20.58A35.56 35.56 0 0 0 320 842h4a35.06 35.06 0 0 0 12.58-2.36 35.54 35.54 0 0 0 34.44 26.98h4.16a35.56 35.56 0 0 0 35.52-35.5v-50.28h202.52v50.24a35.56 35.56 0 0 0 35.52 35.5h4.16a35.54 35.54 0 0 0 34.44-26.98A35.06 35.06 0 0 0 700 842h4a35.56 35.56 0 0 0 35.52-35.52v-20.74a31.34 31.34 0 0 0 7.32 0.88h3.4a31.34 31.34 0 0 0 31.32-31.3V731.8a31.34 31.34 0 0 0-31.24-31.32z m-472.7 62.14h-3.42a7.32 7.32 0 0 1-7.3-7.3V731.8a7.32 7.32 0 0 1 7.3-7.32h3.42a7.3 7.3 0 0 1 6.78 4.6V758a7.3 7.3 0 0 1-6.78 4.62zM324 818h-4a11.54 11.54 0 0 1-11.52-11.52v-45.54a30.6 30.6 0 0 0 0.54-5.62V731.8a30.82 30.82 0 0 0-0.54-5.64v-45.5a11.52 11.52 0 0 1 11.52-11.5h4a11.52 11.52 0 0 1 11.5 11.5v125.78A11.54 11.54 0 0 1 324 818z m62.7 13.12a11.54 11.54 0 0 1-11.52 11.5h-4.16a11.54 11.54 0 0 1-11.52-11.5V656a11.54 11.54 0 0 1 11.52-11.52h4.16a11.54 11.54 0 0 1 11.52 11.52v175.04z m24-74.24v-26.62h202.52v26.58z m253.64 74.24a11.54 11.54 0 0 1-11.52 11.5h-4.16a11.54 11.54 0 0 1-11.52-11.5v-50.28h0.48v-74.58h-0.48V656a11.54 11.54 0 0 1 11.52-11.52h4.16a11.54 11.54 0 0 1 11.52 11.52v175.04z m51.18-24.64A11.54 11.54 0 0 1 704 818h-4a11.54 11.54 0 0 1-11.5-11.52v-125.82a11.52 11.52 0 0 1 11.5-11.5h4a11.52 11.52 0 0 1 11.52 11.5v125.78z m42-51.12a7.32 7.32 0 0 1-7.32 7.3h-3.4a7.32 7.32 0 0 1-7.32-7.3V731.8a7.32 7.32 0 0 1 7.32-7.32h3.4a7.32 7.32 0 0 1 7.32 7.32z" fill="#142546" p-id="2637"></path><path d="M398.78 305.74h226.94v50.56H398.78z" fill="#DCD3D4" p-id="2638"></path><path d="M398.54 255.16h226.94v50.56H398.54z" fill="#FFFFFF" p-id="2639"></path><path d="M727.34 251.86m19.32 0l3.4 0q19.32 0 19.32 19.32l0 23.52q0 19.32-19.32 19.32l-3.4 0q-19.32 0-19.32-19.32l0-23.52q0-19.32 19.32-19.32Z" fill="#F3B5AF" p-id="2640"></path><path d="M254.62 251.86m19.32 0l3.4 0q19.32 0 19.32 19.32l0 23.52q0 19.32-19.32 19.32l-3.4 0q-19.32 0-19.32-19.32l0-23.52q0-19.32 19.32-19.32Z" fill="#F3B5AF" p-id="2641"></path><path d="M676.38 195.28m23.52 0l4.14 0q23.52 0 23.52 23.52l0 125.76q0 23.52-23.52 23.52l-4.14 0q-23.52 0-23.52-23.52l0-125.76q0-23.52 23.52-23.52Z" fill="#F2463E" p-id="2642"></path><path d="M296.38 195.28m23.52 0l4.14 0q23.52 0 23.52 23.52l0 125.76q0 23.52-23.52 23.52l-4.14 0q-23.52 0-23.52-23.52l0-125.76q0-23.52 23.52-23.52Z" fill="#F2463E" p-id="2643"></path><path d="M347.58 170.66m23.52 0l4.14 0q23.52 0 23.52 23.52l0 175.02q0 23.52-23.52 23.52l-4.14 0q-23.52 0-23.52-23.52l0-175.02q0-23.52 23.52-23.52Z" fill="#4966A2" p-id="2644"></path><path d="M625.22 170.66m23.52 0l4.14 0q23.52 0 23.52 23.52l0 175.02q0 23.52-23.52 23.52l-4.14 0q-23.52 0-23.52-23.52l0-175.02q0-23.52 23.52-23.52Z" fill="#4966A2" p-id="2645"></path><path d="M750.3 237.38h-3.42a31.3 31.3 0 0 0-7.3 0.88v-20.7A35.56 35.56 0 0 0 704 182h-4a35.18 35.18 0 0 0-12.6 2.36 35.52 35.52 0 0 0-34.42-26.98h-4.16a35.56 35.56 0 0 0-35.62 35.54v50.24H410.76V192.92a35.56 35.56 0 0 0-35.52-35.5h-4.16a35.54 35.54 0 0 0-34.44 26.98A35.14 35.14 0 0 0 324 182h-4a35.56 35.56 0 0 0-35.52 35.52v20.58a30.36 30.36 0 0 0-6.78-0.76h-3.42a31.36 31.36 0 0 0-31.32 31.3v23.56a31.36 31.36 0 0 0 31.32 31.32h3.42a31.58 31.58 0 0 0 6.78-0.76v20.58A35.54 35.54 0 0 0 320 378.84h4a35.14 35.14 0 0 0 12.58-2.34 35.56 35.56 0 0 0 34.44 26.98h4.16A35.56 35.56 0 0 0 410.76 368v-50.26H613.2V368a35.56 35.56 0 0 0 35.52 35.52h4.16a35.54 35.54 0 0 0 34.42-26.98 35.16 35.16 0 0 0 12.6 2.34H704a35.56 35.56 0 0 0 35.52-35.5v-20.76a30.28 30.28 0 0 0 7.3 0.9h3.42a31.34 31.34 0 0 0 31.32-31.32v-23.52a31.34 31.34 0 0 0-31.26-31.3zM277.6 299.52h-3.42a7.32 7.32 0 0 1-7.32-7.32v-23.52a7.32 7.32 0 0 1 7.32-7.3h3.42a7.3 7.3 0 0 1 6.78 4.6v28.94a7.3 7.3 0 0 1-6.78 4.6z m46.4 55.32h-4a11.52 11.52 0 0 1-11.52-11.5v-45.5a30.82 30.82 0 0 0 0.54-5.64v-23.52a30.6 30.6 0 0 0-0.54-5.62v-45.5A11.54 11.54 0 0 1 320 206h4a11.54 11.54 0 0 1 11.5 11.52v125.78a11.52 11.52 0 0 1-11.5 11.54z m62.76 13.16a11.54 11.54 0 0 1-11.52 11.52h-4.16a11.52 11.52 0 0 1-11.52-11.52V192.92a11.52 11.52 0 0 1 11.52-11.5h4.16a11.54 11.54 0 0 1 11.52 11.5V368z m24-74.22v-26.62H613.2v26.58zM664.38 368a11.52 11.52 0 0 1-11.5 11.52h-4.16a11.52 11.52 0 0 1-11.52-11.52v-50.26h0.48v-74.58h-0.48V192.92a11.52 11.52 0 0 1 11.52-11.5h4.16a11.52 11.52 0 0 1 11.5 11.5V368z m51.2-24.62a11.54 11.54 0 0 1-11.52 11.5H700a11.54 11.54 0 0 1-11.52-11.5v-125.82A11.54 11.54 0 0 1 700 206h4a11.54 11.54 0 0 1 11.52 11.52v125.78z m42-51.14a7.32 7.32 0 0 1-7.32 7.32h-3.42a7.32 7.32 0 0 1-7.3-7.32v-23.56a7.32 7.32 0 0 1 7.3-7.3h3.42a7.32 7.32 0 0 1 7.32 7.3z" fill="#142546" p-id="2646"></path><path d="M199.6 544.54h624.82v62.34H199.6zM923.72 469.82h-8.82a27.12 27.12 0 0 0-27.14 27.12V466a27.16 27.16 0 0 0-27.14-27.14h-8.84A27.14 27.14 0 0 0 824.66 466v219.46a27.12 27.12 0 0 0 27.12 27.14h8.84a27.14 27.14 0 0 0 27.14-27.14v-29.74a27.14 27.14 0 0 0 27.14 27.14h8.82a27.14 27.14 0 0 0 27.14-27.14v-158.78a27.12 27.12 0 0 0-27.14-27.12z" fill="#DCD3D4" p-id="2647"></path><path d="M172.7 438.82h-8.84A27.16 27.16 0 0 0 136.72 466v30.98a27.12 27.12 0 0 0-27.12-27.16h-8.84a27.14 27.14 0 0 0-27.14 27.12v158.78a27.16 27.16 0 0 0 27.14 27.14h8.84a27.14 27.14 0 0 0 27.12-27.14v29.74a27.14 27.14 0 0 0 27.14 27.14h8.84a27.14 27.14 0 0 0 27.14-27.14V466a27.16 27.16 0 0 0-27.14-27.18z" fill="#DCD3D4" p-id="2648"></path><path d="M199.84 481.44h624.82v62.34H199.84z" fill="#FFFFFF" p-id="2649"></path><path d="M912.44 405.48h13.24a24.94 24.94 0 0 1 24.94 24.94v163.18a24.92 24.92 0 0 1-24.92 24.92h-13.24a24.92 24.92 0 0 1-24.92-24.92v-163.18a24.92 24.92 0 0 1 24.92-24.92z" fill="#F2463E" p-id="2650"></path><path d="M73.38 405.48m24.92 0l13.26 0q24.92 0 24.92 24.92l0 163.2q0 24.92-24.92 24.92l-13.26 0q-24.92 0-24.92-24.92l0-163.2q0-24.92 24.92-24.92Z" fill="#F2463E" p-id="2651"></path><path d="M824.4 374.5m24.92 0l13.26 0q24.92 0 24.92 24.92l0 223.94q0 24.92-24.92 24.92l-13.26 0q-24.92 0-24.92-24.92l0-223.94q0-24.92 24.92-24.92Z" fill="#F3B5AF" p-id="2652"></path><path d="M136.48 374.5m24.92 0l13.26 0q24.92 0 24.92 24.92l0 223.94q0 24.92-24.92 24.92l-13.26 0q-24.92 0-24.92-24.92l0-223.94q0-24.92 24.92-24.92Z" fill="#F3B5AF" p-id="2653"></path><path d="M925.68 392.86h-13.24a36.9 36.9 0 0 0-13.16 2.46 36.96 36.96 0 0 0-36.7-32.82h-13.24a36.98 36.98 0 0 0-36.94 36.92v70H211.6v-68.76a36.98 36.98 0 0 0-36.94-36.92h-13.24a36.96 36.96 0 0 0-36.7 32.84 36.48 36.48 0 0 0-13.16-2.48h-13.24a36.96 36.96 0 0 0-36.94 36.94v163.16a36.96 36.96 0 0 0 36.94 36.94h13.24a36.9 36.9 0 0 0 13.16-2.46 36.96 36.96 0 0 0 36.7 32.82h13.24a36.98 36.98 0 0 0 36.94-36.92V555.8h600.8v67.54a36.98 36.98 0 0 0 36.94 36.92h13.24a36.96 36.96 0 0 0 36.7-32.84 36.48 36.48 0 0 0 13.16 2.48h13.24a36.96 36.96 0 0 0 36.94-36.94V429.8a36.96 36.96 0 0 0-36.94-36.94zM111.56 607.14h-13.24a12.94 12.94 0 0 1-12.94-12.94v-163.16a12.94 12.94 0 0 1 12.94-12.94h13.24a12.94 12.94 0 0 1 12.92 12.94v163.16a12.94 12.94 0 0 1-12.92 12.94z m76 17.44a12.94 12.94 0 0 1-12.94 12.92h-13.2a12.94 12.94 0 0 1-12.94-12.92v-224a12.94 12.94 0 0 1 12.94-12.92h13.24a12.94 12.94 0 0 1 12.94 12.92v224z m24-92.78v-38.36H812.4v38.36z m664 91.54a12.94 12.94 0 0 1-12.94 12.92h-13.24a12.94 12.94 0 0 1-12.94-12.92v-224a12.94 12.94 0 0 1 12.94-12.92h13.24a12.94 12.94 0 0 1 12.94 12.92v224z m63.1-30.38a12.94 12.94 0 0 1-12.94 12.94h-13.24a12.94 12.94 0 0 1-12.92-12.94V429.8a12.94 12.94 0 0 1 12.92-12.94h13.24a12.94 12.94 0 0 1 12.94 12.94z" fill="#142546" p-id="2654"></path></svg>