<?xml version="1.0" standalone="no"?><!DOCTYPE svg PUBLIC "-//W3C//DTD SVG 1.1//EN" "http://www.w3.org/Graphics/SVG/1.1/DTD/svg11.dtd"><svg t="1584178881922" class="icon" viewBox="0 0 1024 1024" version="1.1" xmlns="http://www.w3.org/2000/svg" p-id="2930" xmlns:xlink="http://www.w3.org/1999/xlink" width="200" height="200"><defs><style type="text/css"></style></defs><path d="M778.2 575l14.16-4.52c106.98-73.18 72.32-173.7 72.32-173.7L833.54 306c-30.44-37.26-64-1.52-64-1.52C767.1 165.72 666 173.14 666 173.14s-76 6.14-139.6 41.84-45.6 114-45.6 114 60.84 159.62 82.62 216 44.12 84.44 44.12 84.44l1.06-0.34 38.14 119.74a22.2 22.2 0 0 0 27.88 14.4l65-20.7a101.06 101.06 0 0 1-66 120.3l-78.64 26a100.54 100.54 0 0 1-112.52-35.64l-5.68-7.66 60.96-38a22.64 22.64 0 0 0 7.22-31.18L473.4 661.6l-7.4 4.68c77.24-93.52 21.3-175.48 21.3-175.48l-52.52-77.16c-38.52-27.16-61.88 14.9-61.88 14.9-36.88-129.5-132.2-96.76-132.2-96.76s-71.6 25.14-123.84 74.82-15.44 118.58-15.44 118.58 98.2 134.16 133.14 181.38 63.4 68 63.4 68l2.18-1.38 70 112.2a22.64 22.64 0 0 0 31.18 7.22l54.98-34.3 6.82 9.2a124.54 124.54 0 0 0 139.34 44.12l78.62-26a125.12 125.12 0 0 0 81.44-150.38l60.52-19.28z" fill="#DCD3D4" p-id="2931"></path><path d="M330 697.56s-28.48-20.68-63.4-67.9-133.14-181.38-133.14-181.38-36.8-68.9 15.44-118.58 123.76-74.82 123.76-74.82 95.32-32.74 132.2 96.76c0 0 23.34-42 61.88-14.88L519.18 414s58.32 85.42-26.28 181.32z" fill="#F3B5AF" p-id="2932"></path><path d="M326.318 709.256l93.128-58.126 76.286 122.226-93.128 58.126z" fill="#FFFFFF" p-id="2933"></path><path d="M419.83 654.16l71.428-44.584 71.83 115.084-71.43 44.582z" fill="#DCD3D4" p-id="2934"></path><path d="M327.46 711.72s-26.18-18.58-58.18-61.16-122-163.54-122-163.54-33.62-62.2 14.86-107.44 114.6-68.38 114.6-68.38 88.16-30.12 121.56 86.96c0 0 21.76-38.22 57.2-13.8l48 69.6s53.4 77.02-25.18 164.28z" fill="#E08476" p-id="2935"></path><path d="M169.3 506.56l66.28 92.84s72.98-39.82 132.3 83.58l53.12-33.36 4.8 10.64 74.52-48s-120.52-60-72.82-146.38l5.32-11.24s-40.68-48.64-29.72-77.02-42.72 159.12-233.8 128.94z" fill="#E23C3C" p-id="2936"></path><path d="M354.26 408.44l-19.14-14.44a122.12 122.12 0 0 0 21.12-42.9l23.28 5.88a146 146 0 0 1-25.26 51.46zM218.34 477.84a139.2 139.2 0 0 1-14.76-0.76l2.42-23.86c29.02 3.02 60.34-4.88 88.2-22.26a155.26 155.26 0 0 0 29.48-23.74l17.32 16.78a178.84 178.84 0 0 1-34 27.42c-27.78 17.22-58.76 26.42-88.66 26.42z" fill="#142546" p-id="2937"></path><path d="M659.76 574.44s-12.9 2-44.12-84.42c-20.52-56.76-82.62-215.9-82.62-215.9s-18-78.36 45.58-114 139.6-41.82 139.6-41.82 101.12-7.42 103.56 131.36c0 0 33.54-35.74 64 1.52l31.14 90.76s34.66 100.5-72.32 173.68z" fill="#F2463E" p-id="2938"></path><path d="M598.78 445.5s73.6-32.62 108.52 113.8l-47.54 15.14s-12.18-0.74-24.34-33.34-36.64-95.6-36.64-95.6z" fill="#E08476" p-id="2939"></path><path d="M886.78 642.78l-186.84 62.52-39.74-131.04 186.84-62.52 39.74 131.04z" fill="#FFFFFF" p-id="2940"></path><path d="M703.814 599.058l52.668-16.632 18.336 58.064-52.668 16.632z" fill="#4966A2" p-id="2941"></path><path d="M718.66 671.54l-25.82-81.12 75.68-24 25.84 81.1z m4.32-65.54l11.28 35.38 30-9.54-11.26-35.38z" fill="#142546" p-id="2942"></path><path d="M911.28 462.64a147.06 147.06 0 0 0 17.28-123.7l-25.42-79.8a52.4 52.4 0 0 0-65.8-34c-1.14 0.34-2.22 0.76-3.3 1.18a159.36 159.36 0 0 0-6.8-36.76l-0.24-0.7c0-0.24-0.14-0.5-0.22-0.74l-4-12.48-0.86 0.28a118.8 118.8 0 0 0-52.72-56A115 115 0 0 0 680 111.6l-80.92 25.76c-61.36 19.54-95.1 86.26-75.2 148.74l0.12 0.36 100.22 258.98a91.8 91.8 0 0 0 25.1 35.84l43.8 137.5 104.54-33.3A93.38 93.38 0 0 1 736.18 800l-134 42.66a93.42 93.42 0 0 1-114.14-52l3.52-2.18 91.78-57.28-73.28-117.44c14-15.06 26.2-38.24 36.5-69.24a146.94 146.94 0 0 0-13.8-124.1l-44.34-71.08a52.44 52.44 0 0 0-72.2-16.78c-1 0.62-2 1.28-2.9 2a159.12 159.12 0 0 0-16.44-35.26l-0.32-0.52-6.56-10.68-0.58 0.36a116.94 116.94 0 0 0-153.72-27.02l-72 44.92a116.98 116.98 0 0 0-43.28 150l-0.56 0.36 5.54 8.88c0.16 0.26 0.34 0.5 0.5 0.74s0.36 0.64 0.56 0.96l0.2 0.32 1.36 2c0.72 1.04 1.46 2 2.2 3.08l154.6 216.54a89 89 0 0 0 32.8 27.9l80.82 129.52 69.1-43.12a117.56 117.56 0 0 0 106.18 67.66 117.7 117.7 0 0 0 35.76-5.6l134-42.66a117.4 117.4 0 0 0 77.1-144.64l80.28-25.56-42-131.9c17.14-11.26 34.78-30.7 52.42-58.2zM371.58 665.22l-35.78-50a76.58 76.58 0 0 0-92.5-25.62l-54.76-76.74a144 144 0 0 0 27.64 5.62 158.36 158.36 0 0 0 16.62 0.86c33.74 0 68.72-10.4 100-30a192.8 192.8 0 0 0 67.78-70.78 168.8 168.8 0 0 0 18.2 36.92 110.62 110.62 0 0 0-9.74 50.16c1.18 27.58 13.7 67.38 64.34 106l-46 28.68-4.46-7.14z m127.7 90.14l-14.6-23.36 22-14-12.68-20.28-22 13.86-7.66-12.3 21.82-13.78-12.8-20.3-21.74 13.72-11.4-18.3 51.06-31.86 59.12 94.72zM429 352.86a28 28 0 0 1 13.46-4.24 28.5 28.5 0 0 1 25.68 13.38l44.32 71.02a123.18 123.18 0 0 1 11.4 103.9c-8.84 26.6-19.4 47.1-30.52 59.56-65.8-47.14-64-94.82-57.14-119.12a161.56 161.56 0 0 0 31.8 25.7l12.68-20.38c-44.28-27.56-59.6-70-64.66-100.88a28.58 28.58 0 0 1 12.98-28.94zM176.48 326.72l72-44.92a92.92 92.92 0 0 1 127.84 29.58l0.32 0.52a134 134 0 0 1 18.22 46.92 52.56 52.56 0 0 0-3.24 18.26h-0.12c-9.08 35.82-35.06 69.36-71.3 92-32 20-68 29.08-101.48 25.58-29.64-3.1-53.84-15.86-68.98-36.12l-2-2.82c-0.5-0.72-0.98-1.42-1.44-2.16a92.86 92.86 0 0 1 30.18-126.84z m81.24 283.04a52.58 52.58 0 0 1 58.56 19.4L351.18 678l-25.74 16a64.82 64.82 0 0 1-21.02-18.86z m84.86 101.84l72.78-45.4 16 25.52-20.68 13.04 12.8 20.3L444 712l7.66 12.3-20.44 12.9 12.8 20.3 20.36-12.84 14.54 23.34-72.76 45.42z m459.3-52.64l-93.16 29.66-33.9-106.38L768 552.56l68.78-22 33.9 106.4z m32-152.6l-73.24 23.34-45.8 14.58-25.4-65.16-22.36 8.7L692 551.58l-29.36 9.36a68 68 0 0 1-16-24.16l-31.78-82.16a52.5 52.5 0 0 1 39.32 14l16.38-17.54a76.5 76.5 0 0 0-64.64-19.54l-59.24-153.04c-15.64-49.76 11.08-102.76 59.72-118.26l80.8-25.76A91.06 91.06 0 0 1 758 141 95.34 95.34 0 0 1 804.16 196a134 134 0 0 1 5.84 49.26 52.68 52.68 0 0 0-9.12 25.4c-3.14 36 2 88.28 44.32 132.42l17.32-16.6c-36-37.66-40.44-82.64-37.74-113.74a28.6 28.6 0 0 1 19.84-24.74 28 28 0 0 1 14-0.78 28.54 28.54 0 0 1 21.58 19.28l25.16 79.02 0.24 0.76a123 123 0 0 1-14.6 103.48c-19.92 31.1-40.22 51.24-57 56.6z" fill="#142546" p-id="2943"></path></svg>