<?xml version="1.0" standalone="no"?><!DOCTYPE svg PUBLIC "-//W3C//DTD SVG 1.1//EN" "http://www.w3.org/Graphics/SVG/1.1/DTD/svg11.dtd"><svg t="1584178886418" class="icon" viewBox="0 0 1024 1024" version="1.1" xmlns="http://www.w3.org/2000/svg" p-id="3074" xmlns:xlink="http://www.w3.org/1999/xlink" width="200" height="200"><defs><style type="text/css"></style></defs><path d="M954.1 564A100.28 100.28 0 0 0 926 509.04l-27.22-27.22L828 411.08a91.24 91.24 0 0 0-129.04 0l-165.86 165.86c-0.44-11.36-10-11.02-5.2-20.54l12.38-24.4c37.86-74.66 20.56-166.5-43.88-220q-2.22-1.84-4.5-3.6l-18.62-14.5a138.7 138.7 0 0 0-73 53.56 176.12 176.12 0 0 0-29.66 81.02 176.12 176.12 0 0 0-29.66-81.02A138.7 138.7 0 0 0 268 293.88l-15.66 11.74A191.5 191.5 0 0 0 230 325.2C177.24 379.6 165.74 462 199.3 530l13.08 26.52c10.78 21.02 6.94 59.54-9.56 76.46L156.58 691.4c24.48 9.4 57.84 30.1 98 73.5a289.16 289.16 0 0 1 58.32 94.62 62.12 62.12 0 0 0 58 40.48h0.12a61.56 61.56 0 0 0 58.12-40.72A277.56 277.56 0 0 1 488 762.32c28-30 52.76-48.58 73.28-60l81.68 81.28a26.4 26.4 0 0 0 37.28 0l12.58-12.58 38.22 38.24a26.42 26.42 0 0 0 37.34 0L926 651.6a100.6 100.6 0 0 0 28.1-87.6z" fill="#DCD3D4" p-id="3075"></path><path d="M966.4 475.86a100.3 100.3 0 0 0-28.18-54.94l-27.22-27.24-70.74-70.76a91.26 91.26 0 0 0-129.04 0L496.58 537.58 673.86 714l31.2-31.18L762 739.72l176.26-176.28a100.6 100.6 0 0 0 28.14-87.58z" fill="#F4B4B1" p-id="3076"></path><path d="M496.902 533.836L546.4 484.34l175.7 175.7-49.496 49.5z" fill="#FFFFFF" p-id="3077"></path><path d="M821.2 348.72c16.52 17.2 4.52 55.52-12.68 72a43.18 43.18 0 0 1-59.82-62.3c17.3-16.42 55.98-26.9 72.5-9.7zM636.96 525.58c-16.52-17.2-4.52-55.52 12.7-72a43.18 43.18 0 0 1 59.8 62.3c-17.2 16.48-55.98 26.9-72.5 9.7z" fill="#4966A2" p-id="3078"></path><path d="M711.58 470.76l-1.74-32c15.38-0.84 24.2-19.48 24.28-19.66l29.32 12.8c-0.66 1.56-16.52 36.94-51.86 38.86z" fill="#FFFFFF" p-id="3079"></path><path d="M703.41 685.11l49.498-49.498 57.968 57.968-49.498 49.5z" fill="#DCD3D4" p-id="3080"></path><path d="M957.8 476.12s-62-2.6-113.7 64.58l-91.2 94.92 58 58 135.3-143.24s18.82-38.86 11.6-74.26z" fill="#E08476" p-id="3081"></path><path d="M494.96 667.3c-24 8.78-56.96 28.46-96.72 70.94a277.68 277.68 0 0 0-58.76 96.94A61.58 61.58 0 0 1 281.36 876h-0.12a62.14 62.14 0 0 1-58-40.5 289.56 289.56 0 0 0-58.36-94.7c-40.16-43.38-73.52-64-98-73.5l46.24-58.42c16.5-16.92 20.34-55.42 9.56-76.46L109.6 506c-33.56-68-22-150.42 30.74-204.82a191.36 191.36 0 0 1 22.26-19.56l15.66-11.74a138.76 138.76 0 0 1 73 53.54 176.24 176.24 0 0 1 29.66 81.04 176.24 176.24 0 0 1 29.66-81.04 138.76 138.76 0 0 1 73-53.54l18.62 14.5c1.52 1.16 3.02 2.38 4.5 3.58 64.44 53.44 81.74 145.3 43.88 220l-12.42 24.48c-12.16 23.98-6.72 59.56 12.24 78.76z" fill="#F2463E" p-id="3082"></path><path d="M143.82 716l-39.2-27.72c2.8-4 69.54-96.66 188.82-125.74 104.64-25.5 163.46-122.5 157.04-194S496 427.2 444.9 518c-27.68 49.18-81.88 77.1-140 91.3-102.12 24.82-160.5 105.98-161.08 106.7z" fill="#FEEEF0" p-id="3083"></path><path d="M268.92 437.14h24v46.16h-24z" fill="#142546" p-id="3084"></path><path d="M459.8 603.74l-0.84-0.96c-15.42-15.64-20-45.44-10-65.02l12.42-24.5 0.28-0.58a175.46 175.46 0 0 0 5.82-12.66 196 196 0 0 0 11.42-112.4 189.08 189.08 0 0 0-64.44-108.94c-1.56-1.3-3.16-2.58-4.78-3.84l-14-10.9V124h-24v137.28c-38.58 14.7-68.3 43.02-86.32 82.36q-2.4 5.26-4.34 10.3c-1.32-3.36-2.76-6.8-4.36-10.3-18-39.34-47.74-67.66-86.3-82.36V124h-24v139.78L155.4 272a202 202 0 0 0-23.68 20.82C76 350.24 62.72 438 98.82 511.22L112 538c8.8 17.16 4.88 50-7.48 62.62l-57.18 72.04 15.22 5.86c20 7.7 52.54 26.16 93.52 70.44A276 276 0 0 1 212 839.68 74.6 74.6 0 0 0 281.34 888a73.66 73.66 0 0 0 69.44-48.7 264.2 264.2 0 0 1 56.22-92.8c40.16-42.92 72.24-60.58 92-67.84l15.62-5.72zM389.48 730a288 288 0 0 0-61.32 101.18A49.64 49.64 0 0 1 281.22 864a50.44 50.44 0 0 1-46.8-32.7 300.28 300.28 0 0 0-60.74-98.56c-3.82-4.14-7.66-8.14-11.46-12 18.48-25.66 69.2-82 172-108.56 5.1-1.32 10.18-2.82 15.08-4.46l-7.6-22.76c-4.38 1.46-8.92 2.8-13.46 4-107.24 27.66-161.6 84.92-183.7 114.98q-9.3-8.38-18.48-15.5a250.4 250.4 0 0 1 55.58-58.66l-14.7-18.96a274 274 0 0 0-60.42 63.68A213.4 213.4 0 0 0 86 662.6l36.26-45.8c19.16-20.24 24.62-63.66 11.28-89.68l-13.2-26.52c-31.62-64.1-20.14-140.9 28.6-191.12a178.24 178.24 0 0 1 20.86-18.34l10.54-8c33.38 12.26 58.28 35.66 74 69.66a165.66 165.66 0 0 1 14.54 52.26l11.88-0.76 12 0.76a165.66 165.66 0 0 1 14.54-52.26c15.76-34 40.62-57.34 74-69.62l13.48 10.5c1.42 1.1 2.82 2.24 4.2 3.38a161.62 161.62 0 0 1 41.8 53.2 314.56 314.56 0 0 1-20.2 88.32c-24.32 61.4-64.6 98.8-119.78 111.2a355.5 355.5 0 0 0-111 44.84l12.72 20.36A331.56 331.56 0 0 1 306 573.26c62.72-14 110.14-57.78 137.12-126.44a321.36 321.36 0 0 0 13.54-43.62A170.36 170.36 0 0 1 440 502a165.44 165.44 0 0 1-74.8 73.22l10.8 21.46a194.92 194.92 0 0 0 43.78-29.6c1.18 19.38 8.68 38.62 21.64 52l34.38 43.3c-27.8 13.48-56.84 36.14-86.32 67.62z" fill="#142546" p-id="3085"></path><path d="M943.62 412.4l-98-98a102.56 102.56 0 0 0-73-30.24h-1.86l-0.36-0.38c-19.16-20-43.84-32.44-69.52-35.14-26.42-2.78-50.74 5.06-68.44 22l-70.78 68c-17.72 17-26.54 40.98-24.86 67.5a110.42 110.42 0 0 0 18 52.96l-78.4 78.4 194.32 193.36L702 699.78l56.9 56.9L943.62 572a112.8 112.8 0 0 0 0-159.52z m-236.16 74.84a30.92 30.92 0 0 1-9.58 21.86c-6.92 6.64-18.82 12.26-30.34 14.36s-20.66 0.44-25.18-4.28c-4.54-4.72-5.76-14.2-3.26-25.36s8.68-23.08 15.6-29.72a30.9 30.9 0 0 1 21.58-8.68h0.64a31.18 31.18 0 0 1 30.54 31.82z m10.4-36.92a58.74 58.74 0 0 0 19.44-18.84 57.08 57.08 0 0 0 6.9 5.6 30.22 30.22 0 0 1-21.02 20.44 54.36 54.36 0 0 0-5.32-7.2z m34.98-37.22a31.22 31.22 0 0 1 0.9-44c6.92-6.64 18.84-12.28 30.34-14.36a52 52 0 0 1 9.14-0.88c7.1 0 12.82 1.78 16 5.16 10.42 10.86 1.68 41.62-12.34 55.06a31.2 31.2 0 0 1-44.1-0.9z m29.26-82.42l-2.3 0.36c-16.32 2.96-32.28 10.68-42.68 20.66a55.28 55.28 0 0 0-14.82 54.98c-4 14.78-13.5 24-28.2 27.68a55.56 55.56 0 0 0-16.68-2.94A54.78 54.78 0 0 0 638 446.8c-10.4 10-18.78 25.6-22.4 41.78-0.14 0.68-0.26 1.32-0.4 2l-5.2-5.56a94.46 94.46 0 0 1-17.58-29.36l124.24-124.24a78.74 78.74 0 0 1 39-21.42 96.3 96.3 0 0 1 24 18.32zM604.92 384l70.78-68a59.06 59.06 0 0 1 42-16 104.44 104.44 0 0 0-18 14.38l-112.4 112.4c0.18-16.36 5.98-31.7 17.62-42.78z m-26.6-28l70.78-68c12.52-12 30-17.52 49.32-15.5a80.34 80.34 0 0 1 16.38 3.52 82 82 0 0 0-55.72 22.54l-70.78 68a82.46 82.46 0 0 0-24.7 54.46 82 82 0 0 1-2.8-16.36c-1.24-19.3 4.98-36.66 17.52-48.66z m92.44 341.02l-160.28-159.5 35.72-35.72 118 118 16.96-16.98-118-118L570 478l22.32 23.26c1.1 1.24 2.24 2.48 3.4 3.7l18.78 19.56a38.64 38.64 0 0 0 5.34 4.6 37.28 37.28 0 0 0 5.12 6.72c8 8.26 19.44 12.54 33.22 12.54a77.44 77.44 0 0 0 13.56-1.26c16.34-2.96 32.28-10.7 42.68-20.68a54.76 54.76 0 0 0 16.96-38.68 55.52 55.52 0 0 0-0.36-7.54A54 54 0 0 0 766.52 446a57.68 57.68 0 0 0 7.7 0.7h1.16a54.82 54.82 0 0 0 38.18-15.38c20.64-19.82 35.2-66 13.04-89a38 38 0 0 0-8.82-6.78 38.44 38.44 0 0 0-6.46-9.1l-13.64-14.2a78.54 78.54 0 0 1 31.02 19.18l98 98a88.48 88.48 0 0 1 21.26 34c-28.3 0.78-54 10.6-70.98 27.54l-153.88 153.88-24-23.9-16.96 16.96 24 24z m48.18-14.24l28.66-28.66 40 40-28.66 28.66z m207.72-127.86l-122.16 122.16-40-40L894 507.84c15.2-15.2 38.52-20.5 58.26-20.5h0.36c0 1.6 0.12 3.22 0.12 4.82a88.22 88.22 0 0 1-26.08 62.8z" fill="#142546" p-id="3086"></path></svg>