<?xml version="1.0" standalone="no"?><!DOCTYPE svg PUBLIC "-//W3C//DTD SVG 1.1//EN" "http://www.w3.org/Graphics/SVG/1.1/DTD/svg11.dtd"><svg t="1584179154793" class="icon" viewBox="0 0 1024 1024" version="1.1" xmlns="http://www.w3.org/2000/svg" p-id="2209" xmlns:xlink="http://www.w3.org/1999/xlink" width="200" height="200"><defs><style type="text/css"></style></defs><path d="M407.272727 907.636364C246.853818 907.636364 116.363636 777.146182 116.363636 616.727273S246.853818 325.818182 407.272727 325.818182 698.181818 456.308364 698.181818 616.727273 567.691636 907.636364 407.272727 907.636364z m349.090909-861.090909a34.909091 34.909091 0 1 0 0 69.818181h101.911273l-221.928727 221.928728A359.074909 359.074909 0 0 0 407.272727 256C208.360727 256 46.545455 417.815273 46.545455 616.727273S208.360727 977.454545 407.272727 977.454545 768 815.639273 768 616.727273c0-86.900364-30.906182-166.725818-82.292364-229.073455L907.636364 165.725091V267.636364a34.909091 34.909091 0 1 0 69.818181 0V46.545455h-221.090909z" fill="#797979" p-id="2210"></path></svg>