<?xml version="1.0" standalone="no"?><!DOCTYPE svg PUBLIC "-//W3C//DTD SVG 1.1//EN" "http://www.w3.org/Graphics/SVG/1.1/DTD/svg11.dtd"><svg t="1584178868587" class="icon" viewBox="0 0 1024 1024" version="1.1" xmlns="http://www.w3.org/2000/svg" p-id="2490" xmlns:xlink="http://www.w3.org/1999/xlink" width="200" height="200"><defs><style type="text/css"></style></defs><path d="M678 439.86s-76.32-106-45.74-188.44l26-62.22c-208.66-71.68-392.9 0-392.9 0L290.2 246s30.78 86.16-47.68 198.88S180.9 708 211.82 916.92h206.7s32.22-171.76 28.9-226.92h31.5s16.6 192.5 28.88 226.86h203.66S791.76 607 678 439.86z" fill="#DCD3D4" p-id="2491"></path><path d="M370.42 235.46s30.76 87.52-47.68 202-61.62 267.4-30.74 479.64h206.74s32.22-174.48 28.88-230.46h31.52s16.6 195.56 28.88 230.46h203.66S872 602.28 758.14 432.48c0 0-76.32-107.68-45.76-191.4 0 0-153.18-54.16-341.96-5.62z" fill="#F3B5AF" p-id="2492"></path><path d="M272.54 572.26S481.26 552 534.1 686.64l-35.36 230.46h-41.12S527.62 596 266.2 622zM816 572.24S607.26 552 554.4 686.62l35.36 230.46h41.12S560.88 596 822.3 622z" fill="#E08476" p-id="2493"></path><path d="M345.4 177.86s184.26-72.82 392.9 0l-26 63.22s-143.86-52.84-342-5.62z" fill="#4966A2" p-id="2494"></path><path d="M293.66 491.56s277.8 31.76 492.88-2.9c0 0 24 71.42 25.48 88.4 0 0-209.4-31.78-262.56 109.58h-15.36s-56.64-135.46-261.56-114.38c0 0 9.16-62.46 21.12-80.7z" fill="#FFFFFF" p-id="2495"></path><path d="M558 376.38a15.36 15.36 0 1 1-15.34-15.34 15.34 15.34 0 0 1 15.34 15.34z" fill="#122546" p-id="2496"></path><path d="M742.82 381.82a200.36 200.36 0 0 1-16-37.66c29.3-4.58 53.88-10.28 71.68-16.66 9.78-3.5 39.52-14.14 39.52-35.4s-29.86-32-39.66-35.44c-18.14-6.48-43.26-12.26-73.26-16.88a202.5 202.5 0 0 1 23.28-55.36l46-66.4-19.72-13.68-41.1 59.28a624.24 624.24 0 0 0-72.78-18.92l-4.6 23.56a598.26 598.26 0 0 1 64.42 16.4 228.12 228.12 0 0 0-16 39.34c-144.98-34.3-286.54-10.58-326.26-2.54a232.42 232.42 0 0 0-15.18-36.82A594 594 0 0 1 612 161.3l2.84-23.84a624.74 624.74 0 0 0-77.12-4.3 617.44 617.44 0 0 0-187.4 30.46c-11.4-16.74-38.12-56-40.18-59.1l-20 13.32c2.66 4 43.18 63.5 45.36 66.7a196.82 196.82 0 0 1 23.04 54.78c-31.46 4.74-57.78 10.74-76.5 17.46-9.68 3.5-39.2 14.12-39.2 35.28s30 32 39.74 35.5c18.34 6.52 43.82 12.36 74.22 17a201.8 201.8 0 0 1-15.88 37.22c-5.06 9.18-10.26 18.1-15.78 27.52-50.78 86.94-108.32 185.46-44.86 510l23.56-4.6c-30.12-154-32.42-255.3-21.24-328.38 23.46-2.8 106.76-9.22 174 30 34.92 20.4 51.32 44.88 59 62.58-0.84 31.6-2.88 63.52-6 94.92a1266.78 1266.78 0 0 1-22.44 140.58l23.44 5.12a1290.94 1290.94 0 0 0 22.88-143.26c2.64-25.8 4.5-52 5.58-78a28.6 28.6 0 0 0 3.5 0.22h0.42a27.68 27.68 0 0 0 5-0.46c1.06 26.12 2.92 52.34 5.58 78.22a1286.28 1286.28 0 0 0 22.88 143.26l23.44-5.12a1271.54 1271.54 0 0 1-22.6-140.38 1278.932 1278.932 0 0 1-6.16-97.46h-0.3c8.44-17.48 25.34-40.62 59.02-60 66.44-38.22 148-32.62 171.3-30 11.16 72.98 8.86 174.3-21.14 328.26l23.56 4.6c63.46-324.6 5.9-423.12-44.88-510-5.6-9.4-10.8-18.4-15.86-27.58z m-22.4-118.48c68.8 10.48 90.34 23.68 93.4 28.76-3.04 5.06-24.4 18.2-92.62 28.66a186.48 186.48 0 0 1-0.78-57.42zM267 292.1c3.1-5.12 25.16-18.64 96.26-29.18a186.96 186.96 0 0 1-0.82 58.26C292 310.68 270 297.24 267 292.1zM796.68 562c-32-2.74-112-4.72-178.8 33.78-42.76 24.6-62.44 55.14-71.4 76.44a4 4 0 0 1-3.64 2.5h-0.42a4 4 0 0 1-3.68-2.36c-8.64-21.3-27.82-51.86-70-76.54-67.62-39.52-149.12-36.94-181.6-34a377.02 377.02 0 0 1 16.66-56.9 2262.28 2262.28 0 0 0 238.6 12.68h1.12A2268.38 2268.38 0 0 0 780 505.02a378 378 0 0 1 16.68 56.98z m-253.26-68.4h-1.1a2242.7 2242.7 0 0 1-228.9-11.8 675.04 675.04 0 0 1 32.42-60.36c5.34-9.14 10.86-18.6 16-28a220.4 220.4 0 0 0 18.88-45.5c9.84 1.22 20 2.32 30.62 3.3l2.22-24c-9.44-0.88-18.64-1.86-27.52-2.94a216.8 216.8 0 0 0-1.7-79.6c39.36-7.86 176.8-30.56 314.42 2.2a216.86 216.86 0 0 0-1.3 77.08c-21.8 2.68-45.6 4.8-70.36 6.28l22-22-16.98-16.98-51.3 51.3L634.28 396l16.98-16.96-24.76-24.74c27.02-1.56 52.54-3.86 76.32-6.86a219.66 219.66 0 0 0 18.98 45.86c5.2 9.46 10.72 18.92 16 28a669 669 0 0 1 32.48 60.44 2239 2239 0 0 1-226.86 11.86z" fill="#142546" p-id="2497"></path></svg>