<?xml version="1.0" standalone="no"?><!DOCTYPE svg PUBLIC "-//W3C//DTD SVG 1.1//EN" "http://www.w3.org/Graphics/SVG/1.1/DTD/svg11.dtd"><svg t="1584178815692" class="icon" viewBox="0 0 1024 1024" version="1.1" xmlns="http://www.w3.org/2000/svg" p-id="1204" xmlns:xlink="http://www.w3.org/1999/xlink" width="200" height="200"><defs><style type="text/css"></style></defs><path d="M225.98 356.22m98.98 0l427.96 0q98.98 0 98.98 98.98l0 400.1q0 98.98-98.98 98.98l-427.96 0q-98.98 0-98.98-98.98l0-400.1q0-98.98 98.98-98.98Z" fill="#DCD3D4" p-id="1205"></path><path d="M184.08 290.08m63.44 0l471.18 0q63.44 0 63.44 63.44l0 471.18q0 63.44-63.44 63.44l-471.18 0q-63.44 0-63.44-63.44l0-471.18q0-63.44 63.44-63.44Z" fill="#F4B4B1" p-id="1206"></path><path d="M184.08 290.58m63.44 0l471.18 0q63.44 0 63.44 63.44l0 402.72q0 63.44-63.44 63.44l-471.18 0q-63.44 0-63.44-63.44l0-402.72q0-63.44 63.44-63.44Z" fill="#FFEEF0" p-id="1207"></path><path d="M184 717.74L686.86 290s95.28-23.36 95.28 73.62L253.86 823.06S166.66 826.8 184 717.74zM331.2 823.08l447.52-389.16 1.08 42.46L381.84 823.8l-50.64-0.72z" fill="#FFFFFF" p-id="1208"></path><path d="M376.02 337.18m26.08 0l162.02 0q26.08 0 26.08 26.08l0 44.98q0 26.08-26.08 26.08l-162.02 0q-26.08 0-26.08-26.08l0-44.98q0-26.08 26.08-26.08Z" fill="#4966A2" p-id="1209"></path><path d="M384 422.76l99.22-86h39l-104 97.14-31.5-2.74a4.8 4.8 0 0 1-2.72-8.4zM501.46 438.1l88-76.22 0.64 53.9a20.16 20.16 0 0 1-9.22 17.16 20.48 20.48 0 0 1-10.42 3.24zM464.62 333.14l-88 76.22-0.64-54a20.16 20.16 0 0 1 9.22-17.16 20.1 20.1 0 0 1 10.42-3.24z" fill="#3D5890" p-id="1210"></path><path d="M299.62 499.8a13.9 13.9 0 1 1-13.9-14 13.9 13.9 0 0 1 13.9 14zM359.58 499.8a13.9 13.9 0 1 1-13.88-14 13.9 13.9 0 0 1 13.88 14zM299.62 635.84a13.9 13.9 0 1 1-13.9-13.9 13.9 13.9 0 0 1 13.9 13.9zM359.58 635.84a13.9 13.9 0 1 1-13.88-13.9 13.88 13.88 0 0 1 13.88 13.9zM299.62 567.82a13.9 13.9 0 1 1-13.9-14 13.9 13.9 0 0 1 13.9 14zM359.58 567.82a13.9 13.9 0 1 1-13.88-14 13.9 13.9 0 0 1 13.88 14zM634.52 499.8a13.9 13.9 0 1 1-13.9-14 13.9 13.9 0 0 1 13.9 14zM694.5 499.8a13.9 13.9 0 1 1-13.9-14 13.9 13.9 0 0 1 13.9 14zM299.66 703.86a13.9 13.9 0 1 1-13.88-13.9 13.88 13.88 0 0 1 13.88 13.9zM359.64 703.86a13.9 13.9 0 1 1-13.88-13.9 13.88 13.88 0 0 1 13.88 13.9zM634.58 703.86a13.9 13.9 0 1 1-14-13.9 13.9 13.9 0 0 1 14 13.9zM694.56 703.86a13.9 13.9 0 1 1-13.9-13.9 13.9 13.9 0 0 1 13.9 13.9zM634.52 635.84a13.9 13.9 0 1 1-13.9-13.9 13.9 13.9 0 0 1 13.9 13.9zM694.5 635.84a13.9 13.9 0 1 1-13.9-13.84 13.9 13.9 0 0 1 13.9 13.84zM634.52 567.82a13.9 13.9 0 1 1-13.9-14 13.9 13.9 0 0 1 13.9 14zM694.5 567.82a13.9 13.9 0 1 1-13.9-14 13.9 13.9 0 0 1 13.9 14z" fill="#F2463E" p-id="1211"></path><path d="M718.7 278H247.54A75.56 75.56 0 0 0 172 353.54v471.16a75.54 75.54 0 0 0 75.46 75.44h471.24a75.52 75.52 0 0 0 75.44-75.44V353.54A75.54 75.54 0 0 0 718.7 278z m2 556.98a73.1 73.1 0 0 0 49.4-19.16v8.8a51.5 51.5 0 0 1-51.44 51.44H247.54A51.5 51.5 0 0 1 196 824.7V816a73.14 73.14 0 0 0 49.42 19.16h388.46v-24H245.5A49.48 49.48 0 0 1 196 761.66V353.54A51.52 51.52 0 0 1 247.54 302h471.16a51.5 51.5 0 0 1 51.44 51.46v408.2a49.46 49.46 0 0 1-49.4 49.4h-44.28v24z" fill="#142546" p-id="1212"></path><path d="M564.12 446h-162a38.12 38.12 0 0 1-38-38v-45.14a38.12 38.12 0 0 1 38-38h162a38.12 38.12 0 0 1 38 38v44.98a38.12 38.12 0 0 1-38 38.16z m-162-97.14a14 14 0 0 0-14 14v44.98a14.1 14.1 0 0 0 14 14h162a14 14 0 0 0 14-14v-44.98a14 14 0 0 0-14-14z" fill="#142546" p-id="1213"></path><path d="M505.7 362.14h24v47.22h-24zM542.88 362.14h24v47.22h-24zM468.52 362.14h24v47.22h-24zM422.26 757.72h121.3v24h-121.3zM471.14 69.74h24v38h-24zM471.16 127.4h24v82.64h-24zM642.116 144.904l26.86-26.88 16.976 16.966-26.86 26.88zM569.808 217.246l58.416-58.456 16.976 16.966-58.416 58.454zM280.312 136.152l16.966-16.978 26.88 26.86-16.966 16.978zM321.112 176.918l16.966-16.976 58.454 58.414-16.964 16.976z" fill="#142546" p-id="1214"></path></svg>