<?xml version="1.0" standalone="no"?><!DOCTYPE svg PUBLIC "-//W3C//DTD SVG 1.1//EN" "http://www.w3.org/Graphics/SVG/1.1/DTD/svg11.dtd"><svg t="1584179118585" class="icon" viewBox="0 0 1024 1024" version="1.1" xmlns="http://www.w3.org/2000/svg" p-id="1143" xmlns:xlink="http://www.w3.org/1999/xlink" width="200" height="200"><defs><style type="text/css"></style></defs><path d="M508.7 952.5c-0.9 0-81.8-0.8-164.3-7.1-152.9-11.6-179.3-31-185.8-44.6-11.3-23.5-0.7-52.6 11.7-86.3 10-27.2 21.3-58 22.3-90.3 2.8-89.3-68.5-460.1-69.3-463.8-0.7-3.8 1.8-7.5 5.5-8.2 3.8-0.7 7.5 1.8 8.2 5.5 3 15.3 72.4 376 69.5 466.9-1.1 34.5-12.8 66.5-23.1 94.6-11.3 30.7-21 57.2-12.2 75.4 1.8 3.7 11 13.3 57.9 22.5 29.1 5.8 68.3 10.5 116.4 14.2 82.1 6.2 162.5 7 163.3 7 3.9 0 7 3.2 6.9 7.1 0 4-3.2 7.1-7 7.1z" fill="" p-id="1144"></path><path d="M403.7 254.7H130.1c-22.6 0-44.2-25-66.2-76.5C48.5 142 39 106.5 38.6 105c-1-3.7 1.2-7.6 5-8.6 3.7-1 7.6 1.2 8.6 5 0.1 0.4 9.7 36.2 24.8 71.4 18.7 43.8 37.6 67.9 53.2 67.9h273.6c3.9 0 7 3.1 7 7s-3.2 7-7.1 7zM507.8 952.5c-3.8 0-7-3.1-7-6.9 0-3.9 3.1-7 6.9-7.1 0.8 0 81.3-0.8 163.4-7 48-3.6 87.2-8.4 116.3-14.2 46.9-9.3 56.1-18.8 57.9-22.5 8.8-18.1-1-44.6-12.2-75.4-10.3-28.2-22.1-60.1-23.1-94.6-2.8-90.9 66.6-451.6 69.5-466.9 0.7-3.8 4.4-6.3 8.2-5.5 3.8 0.7 6.3 4.4 5.5 8.2-0.7 3.7-72.1 374.5-69.3 463.8 1 32.3 12.3 63.1 22.3 90.3 12.4 33.7 23 62.8 11.7 86.3-6.6 13.6-33 33-185.8 44.6-82.5 6.1-163.5 6.9-164.3 6.9z" fill="" p-id="1145"></path><path d="M886.3 254.7H612.8c-3.9 0-7-3.1-7-7s3.1-7 7-7h273.6c15.7 0 34.6-24.1 53.3-68 15-35.3 24.6-70.9 24.7-71.3 1-3.7 4.8-6 8.6-5 3.7 1 6 4.8 5 8.6-0.4 1.5-9.9 37-25.4 73.2-22.1 51.4-43.7 76.5-66.3 76.5zM261.1 545.7c-1.6 0-3.3-0.6-4.6-1.7-2.9-2.5-3.2-7-0.7-9.9 39.1-44.8 82.9-181.3 83.4-182.6 0.9-2.9 3.6-4.9 6.7-4.9h117.5c3.9 0 7 3.1 7 7s-3.1 7-7 7H351c-8.4 25.5-47.5 140.2-84.6 182.7-1.4 1.6-3.3 2.4-5.3 2.4zM764 545.7c-2 0-3.9-0.8-5.3-2.4-37.1-42.5-76.2-157.2-84.6-182.7H561.7c-3.9 0-7-3.1-7-7s3.1-7 7-7h117.5c3 0 5.7 2 6.7 4.9 0.4 1.4 44.3 137.9 83.4 182.6 2.5 2.9 2.2 7.3-0.7 9.9-1.3 1.1-3 1.7-4.6 1.7zM642.6 523.4H368.1c-3.9 0-7-3.1-7-7s3.1-7 7-7h274.5c3.9 0 7 3.1 7 7s-3.1 7-7 7zM642.6 629.4H368.1c-3.9 0-7-3.1-7-7s3.1-7 7-7h274.5c3.9 0 7 3.1 7 7s-3.1 7-7 7zM642.6 758.4H368.1c-3.9 0-7-3.1-7-7s3.1-7 7-7h274.5c3.9 0 7 3.1 7 7s-3.1 7-7 7z" fill="" p-id="1146"></path><path d="M505.3 804.2c-3.9 0-7-3.1-7-7V403.7c0-3.9 3.1-7 7-7s7 3.1 7 7v393.5c0 3.9-3.1 7-7 7z" fill="" p-id="1147"></path><path d="M492.4 864.1a15.4 12.5 0 1 0 30.8 0 15.4 12.5 0 1 0-30.8 0Z" fill="#E7711E" p-id="1148"></path><path d="M507.8 883.7c-12.4 0-22.4-8.8-22.4-19.5s10.1-19.5 22.4-19.5c12.4 0 22.4 8.8 22.4 19.5s-10.1 19.5-22.4 19.5z m0-25.1c-5 0-8.4 2.9-8.4 5.5s3.5 5.5 8.4 5.5 8.4-2.9 8.4-5.5-3.5-5.5-8.4-5.5z" fill="" p-id="1149"></path></svg>