<?xml version="1.0" standalone="no"?><!DOCTYPE svg PUBLIC "-//W3C//DTD SVG 1.1//EN" "http://www.w3.org/Graphics/SVG/1.1/DTD/svg11.dtd"><svg t="1584179124181" class="icon" viewBox="0 0 1024 1024" version="1.1" xmlns="http://www.w3.org/2000/svg" p-id="1280" xmlns:xlink="http://www.w3.org/1999/xlink" width="200" height="200"><defs><style type="text/css"></style></defs><path d="M856.2 990.5c-0.7 0-1.3-0.1-2-0.3-3.7-1.1-5.8-5-4.7-8.7 26.1-87.6 67.5-470.4 15.2-554.6C761.3 263.5 750.1 102.3 750.1 40.5c0-3.9 3.1-7 7-7s7 3.1 7 7c0 60.5 11 218.6 112.5 378.9 13.5 21.7 22.1 60.9 25.6 116.6 3 46.9 2.4 104-1.7 169.8C893 826 875.2 944.5 863 985.4c-1 3.1-3.8 5.1-6.8 5.1z" fill="" p-id="1281"></path><path d="M757.1 730.3H646.4c-11.5 0-22.9-1.8-33.8-5.2-22.4-7.1-41.7-20.9-55.8-39.9-14.4-19.3-22-42.3-22-66.5 0-66.1 25.8-128.3 72.7-175.1 22.6-22.7 49.1-40.6 78.7-53.1 30.6-12.9 63-19.5 96.5-19.5h61.7c3.9 0 7 3.1 7 7s-3.1 7-7 7h-61.7c-62.6 0-121.3 24.3-165.2 68.5-44.2 44.2-68.6 102.9-68.6 165.3 0 42.7 27.3 80.1 68 93 9.5 3 19.5 4.6 29.6 4.6h110.7c3.9 0 7 3.1 7 7s-3.2 6.9-7.1 6.9z" fill="" p-id="1282"></path><path d="M577.5 987.4c-3.9 0-7-3.1-7-7v-170c0-51.9 42.2-94.1 94.1-94.1h87.8c3.9 0 7 3.1 7 7s-3.1 7-7 7h-87.8c-44.2 0-80.1 35.9-80.1 80.1v170c0 3.8-3.1 7-7 7zM186.2 990.5c-3 0-5.8-2-6.7-5-12.2-40.9-30-159.4-37.5-279.6-4.1-65.8-4.7-123-1.7-169.8 3.5-55.7 12.1-95 25.6-116.6C267.4 259.1 278.3 101 278.3 40.5c0-3.9 3.1-7 7-7s7 3.1 7 7c0 61.7-11.2 222.9-114.6 386.4-52.3 84.1-10.9 466.9 15.2 554.6 1.1 3.7-1 7.6-4.7 8.7-0.6 0.2-1.3 0.3-2 0.3z" fill="" p-id="1283"></path><path d="M396.1 730.3H285.3c-3.9 0-7-3.1-7-7s3.1-7 7-7H396c10.1 0 20-1.5 29.6-4.6 40.7-12.9 68-50.3 68-93 0-62.3-24.3-121-68.6-165.2-44-44.2-102.6-68.6-165.2-68.6h-61.7c-3.9 0-7-3.1-7-7s3.1-7 7-7h61.7c33.4 0 65.9 6.6 96.5 19.5 29.6 12.5 56.1 30.4 78.7 53.2 46.8 46.8 72.6 109 72.6 175.1 0 24.1-7.6 47.1-22 66.5-14.1 19-33.4 32.7-55.8 39.9-10.8 3.4-22.2 5.2-33.7 5.2z" fill="" p-id="1284"></path><path d="M464.9 987.4c-3.9 0-7-3.1-7-7v-170c0-44.2-35.9-80.1-80.1-80.1H290c-3.9 0-7-3.1-7-7s3.1-7 7-7h87.8c51.9 0 94.1 42.2 94.1 94.1v170c0 3.8-3.1 7-7 7zM799.2 282.5h-556c-3.9 0-7-3.1-7-7s3.1-7 7-7h555.9c3.9 0 7 3.1 7 7s-3.1 7-6.9 7z" fill="" p-id="1285"></path></svg>