<?xml version="1.0" standalone="no"?><!DOCTYPE svg PUBLIC "-//W3C//DTD SVG 1.1//EN" "http://www.w3.org/Graphics/SVG/1.1/DTD/svg11.dtd"><svg t="1584178878416" class="icon" viewBox="0 0 1024 1024" version="1.1" xmlns="http://www.w3.org/2000/svg" p-id="2785" xmlns:xlink="http://www.w3.org/1999/xlink" width="200" height="200"><defs><style type="text/css"></style></defs><path d="M613.48 77.88c-95.12 0-172.26 77.6-172.26 173.34s77.14 173.34 172.26 173.34 172.28-77.6 172.28-173.34-77.14-173.34-172.28-173.34z m-33.2 165A94.64 94.64 0 0 1 646 152.6a99.32 99.32 0 0 1-4.16 179.14 94.68 94.68 0 0 1-61.56-88.86z" fill="#DCD3D4" p-id="2786"></path><path d="M143.02 649.68m44.5 0l17.64 0q44.5 0 44.5 44.5l0 210.58q0 44.5-44.5 44.5l-17.64 0q-44.5 0-44.5-44.5l0-210.58q0-44.5 44.5-44.5Z" fill="#DCD3D4" p-id="2787"></path><path d="M220.56 632.6v-66.88h73.5v66.88" fill="#E08476" p-id="2788"></path><path d="M204.62 618.8m44.5 0l17.64 0q44.5 0 44.5 44.5l0 210.58q0 44.5-44.5 44.5l-17.64 0q-44.5 0-44.5-44.5l0-210.58q0-44.5 44.5-44.5Z" fill="#F4B4B1" p-id="2789"></path><path d="M204.6 786.14h106.64v49.54H204.6z" fill="#FFFFFF" p-id="2790"></path><path d="M489.64 649.68m44.5 0l17.64 0q44.5 0 44.5 44.5l0 210.58q0 44.5-44.5 44.5l-17.64 0q-44.5 0-44.5-44.5l0-210.58q0-44.5 44.5-44.5Z" fill="#DCD3D4" p-id="2791"></path><path d="M564.42 632.6v-66.88h73.5v66.88" fill="#E08476" p-id="2792"></path><path d="M551.24 618.8m44.5 0l17.64 0q44.5 0 44.5 44.5l0 210.58q0 44.5-44.5 44.5l-17.64 0q-44.5 0-44.5-44.5l0-210.58q0-44.5 44.5-44.5Z" fill="#F4B4B1" p-id="2793"></path><path d="M551.24 787.84h106.64v49.54h-106.64z" fill="#FFFFFF" p-id="2794"></path><path d="M831.08 183.88s25.82 104-47.08 164-118.92 46-118.92 46 56 52.84 141 1.42 69-143.42 57-171.42-32-40-32-40zM601.16 94.96s-142 14.1-118 187.52c0 0 24 106.4 141 104.4s-72.84-37.34-87.3-133c-0.08 0-17.62-69.88 64.3-158.92z" fill="#C6B4B8" p-id="2795"></path><path d="M231.76 565.72h46.66v-161.16s6.66-79.34 54.66-142 94-98.68 174-117.34c0 0 40.68-46 72.68-56.66 0 0-127.08-1.46-219.34 68-40.76 30.68-68.3 70.12-86.84 107.46a369.02 369.02 0 0 0-37.58 153.6z" fill="#DDD3D4" p-id="2796"></path><path d="M681.88 86.72a150.56 150.56 0 1 0 150.56 150.56 150.72 150.72 0 0 0-150.56-150.56z m0 247.1a96.56 96.56 0 1 1 96.56-96.54 96.64 96.64 0 0 1-96.56 96.54z" fill="#DED3D4" p-id="2797"></path><path d="M638 395.88s-58.16 5.22-58.16 100.12v69.72H624v-82.94a119.56 119.56 0 0 1 26.92-76.36c4.7-5.66 9.54-10.28 14-12.54z" fill="#DDD3D4" p-id="2798"></path><path d="M816.26 148.36a164 164 0 0 0-136.78-73.62h-108.24c-192.44 0-349 156.56-349 349v130h-13.08v69.64a56.36 56.36 0 0 0-16.56 40V874a56.54 56.54 0 0 0 56.48 56.48h17.66A56.56 56.56 0 0 0 323.24 874V663.3a56.32 56.32 0 0 0-16.58-40v-69.58h-15.24V432c0-121.54 85.08-236 198.88-274.36A166.18 166.18 0 0 0 540 378.38v0.2h0.28a165.54 165.54 0 0 0 58.4 25.3 92.94 92.94 0 0 0-29.8 68.12v81.74h-13.1v69.64a56.36 56.36 0 0 0-16.56 40V874a56.54 56.54 0 0 0 56.48 56.48h17.66A56.56 56.56 0 0 0 669.86 874V663.3a56.28 56.28 0 0 0-16.58-40v-69.58h-13.54V472a73.4 73.4 0 0 1 25.08-55.04 155.08 155.08 0 0 0 151.44-268.6zM493.2 262a66 66 0 0 0 28.46-7.42 160.84 160.84 0 0 0 6 30.56c-7.78 11.44-15.78 16.62-21.36 18.98A141.26 141.26 0 0 1 493.2 262z m-60.92-104.8a320.18 320.18 0 0 0-27.84 17.42c-14.34-2-22.84-7-27.56-11.14a327.72 327.72 0 0 1 36.48-23.64 61.26 61.26 0 0 0 18.92 17.28z m2.72-28.4a321.38 321.38 0 0 1 39.38-15.24 63.4 63.4 0 0 0 21.18 17.4 291.5 291.5 0 0 0-34.68 12.26c-14.3-3.7-22-10-25.88-14.5zM657.78 346a109.1 109.1 0 0 0 38.74 1.78 68.1 68.1 0 0 0 7.3 26.7 136.52 136.52 0 0 1-39.54 0.5c-6.62-12.98-7.24-22.88-6.5-28.98z m-111.14-85.28a138.18 138.18 0 0 1-1.76-21.86 136 136 0 0 1 1.42-19.48c12.3-10.8 22.76-13.74 29.28-14.3a111.6 111.6 0 0 0-4.76 32.26c0 1.68 0 3.34 0.12 5a61.2 61.2 0 0 0-24.3 18.32zM644 106.94c13.04 6.62 19.84 14.14 23.38 20a110.62 110.62 0 0 0-38.38 12.56 61.46 61.46 0 0 0-26.76-12.14A137 137 0 0 1 644 106.94zM720.46 342a110.94 110.94 0 0 0 27.76-14.96 74.24 74.24 0 0 0 12.68 24.32 136.68 136.68 0 0 1-33.08 17.04c-7.46-12.4-7.82-21.82-7.36-26.4z m79.06-174.42a136.2 136.2 0 0 1 17.36 44.42c-9.72 8.82-18.3 12-24 12.9a110.74 110.74 0 0 0-10-35.32 64.26 64.26 0 0 0 16.64-22.1z m-11.22 103.78a110.12 110.12 0 0 0 4.7-22.32 64.46 64.46 0 0 0 26.5-9.16 136.48 136.48 0 0 1-5.16 36.36c-13.68 1.02-22.08-2.56-26.04-4.98z m-9.78 22a64 64 0 0 0 26.46 7.04 138.26 138.26 0 0 1-25.68 35.62c-11.72-15.76-10.86-28.14-10.86-28.14a110.54 110.54 0 0 0 10.08-14.7z m3.58-148.46c-2.9 12.46-8 20-12 24.14a112 112 0 0 0-23.4-22.4 64.14 64.14 0 0 0 1.12-28.3 137.82 137.82 0 0 1 34.28 26.38z m-57.42-10.42a110.3 110.3 0 0 0-31.44-7.88 62 62 0 0 0-15.72-24.82c1.56 0 3.12-0.12 4.7-0.12a136.5 136.5 0 0 1 36.94 5.1c5.42 11.84 6.16 21.24 5.52 27.54z m-147.36 16c14.82-1.7 24.68 1.02 30.66 4a111.72 111.72 0 0 0-22.16 27.24 58.6 58.6 0 0 0-30.16 4 137.56 137.56 0 0 1 21.66-35.42z m17.5 86.98a87.4 87.4 0 1 1 87.4 87.4 87.48 87.48 0 0 1-87.4-87.58zM592 105.12a162.6 162.6 0 0 0-48.96 52.24C528.16 170 516 171.78 510 171.58a143.16 143.16 0 0 1 82-66.46z m-92.3 89.14a46.3 46.3 0 0 0 11.02 1.24 61.64 61.64 0 0 0 16.82-2.46 159.82 159.82 0 0 0-6.12 33.34c-13.2 10.2-23.9 11.76-29.64 11.64a141.64 141.64 0 0 1 7.92-43.76z m75.18 72.76a110.9 110.9 0 0 0 13.68 30.48 61.5 61.5 0 0 0-12 28.94 137.02 137.02 0 0 1-20.9-34.26c6.02-14.48 13.72-21.68 19.22-25.16z m25.56 82c-2.24-16 0.88-26.3 4-32.14A111.66 111.66 0 0 0 634.88 338a64.68 64.68 0 0 0 1.14 30 136.68 136.68 0 0 1-35.58-18.96z m203.18-3.16c9.48 10.14 11.8 19.04 12.32 23.62A131.12 131.12 0 0 1 774.9 396a82.76 82.76 0 0 0 3.9-26.66 164.52 164.52 0 0 0 24.82-23.46z m14.48-19.5a162.78 162.78 0 0 0 17.36-36.8c11.42 7.6 15.46 15.68 16.8 19.56a130.62 130.62 0 0 1-18.12 39.08 78 78 0 0 0-16.04-21.82z m38.88-52v1.48a84.74 84.74 0 0 0-15.56-10.68 162.3 162.3 0 0 0 0-52.78 130.84 130.84 0 0 1 15.56 62z m-332-158.62a60.84 60.84 0 0 1-23.74-9.4 324.46 324.46 0 0 1 45.48-6.7 167.82 167.82 0 0 0-21.76 16.12zM246.24 476a63.64 63.64 0 0 0 21.18-8v31.58a52.36 52.36 0 0 1-21.18 14.16z m21.18-44v5.8a51.34 51.34 0 0 1-21.18 13.74v-27.8c0-5.14 0.14-10.24 0.36-15.3a67.34 67.34 0 0 0 22.26-5.14c-0.86 9.54-1.44 19.12-1.44 28.7z m6-58.64a55.42 55.42 0 0 1-24.7 10.88 322.76 322.76 0 0 1 7.1-38.56 63.38 63.38 0 0 0 10.72 0.92 71.36 71.36 0 0 0 14-1.46q-4.3 14-7.2 28.24z m17.26-56.64c-12.22 5.58-21.7 6.4-28.2 5.76a322.84 322.84 0 0 1 14.8-37.1 62.2 62.2 0 0 0 24.72 4.86h1.08q-6.92 13-12.48 26.5z m27.9-53.02c-14.74 4.24-24.74 2.4-30.24 0.36a323.78 323.78 0 0 1 23.62-36 64.86 64.86 0 0 0 25.72 9.24q-10.32 12.84-19.18 26.42z m-19.26 399.58v110.84H216.6v-110.82a32.54 32.54 0 0 1 32.48-32.5h17.66a32.54 32.54 0 0 1 32.5 32.5z m0 134.84v25.52H216.6v-25.5z m-32.5 108.24h-17.66A32.52 32.52 0 0 1 216.6 874v-26.34h82.64V874a32.54 32.54 0 0 1-32.5 32.38z m0-299.58h-17.66a56.62 56.62 0 0 0-16 2.3v-31.36h49.5v31.38a56.52 56.52 0 0 0-15.92-2.3z m-20.5-53.08v-15.22a64.18 64.18 0 0 0 21.18-8.2v23.42z m112.3-340c-15.38 1.78-25.46-1.2-31.38-4.28a326.74 326.74 0 0 1 30.98-30.84 64.74 64.74 0 0 0 22.44 14.5q-11.5 9.74-22.12 20.6z m160.2 110.94a68.74 68.74 0 0 0 19.04-14 162.58 162.58 0 0 0 20.82 31.76 36.26 36.26 0 0 1-12.84 10.54 142.96 142.96 0 0 1-27.1-28.32z m56.72 34.98A160.82 160.82 0 0 0 606 380.94a141.56 141.56 0 0 1-38.34-13.72 64.38 64.38 0 0 0 7.8-7.62z m40.2 112.38v20.12a64.66 64.66 0 0 0-22.86 9.06v-26c9.16-10.4 17.72-14.82 23.84-16.68a94.3 94.3 0 0 0-0.98 13.5z m30.12 191.32v110.84h-82.64v-110.86a32.54 32.54 0 0 1 32.48-32.5h17.66a32.54 32.54 0 0 1 32.5 32.5z m0 134.84v25.52h-82.64v-25.54z m-32.5 108.24h-17.66a32.52 32.52 0 0 1-32.48-32.4v-26.34h82.64V874a32.54 32.54 0 0 1-32.5 32.38z m0-299.58h-17.66a56.62 56.62 0 0 0-16 2.3v-31.4h49.5v31.38a56.62 56.62 0 0 0-15.84-2.3z m-20.48-53.08v-21.46c8.74-9.46 16.86-13.74 22.86-15.62v37.06zM624 433.24a57.24 57.24 0 0 0-22.58 5.58 69.4 69.4 0 0 1 40.58-33 98.76 98.76 0 0 0-18 27.42zM696 402a163.08 163.08 0 0 0 56.94-16.64c-3.26 12.84-9.46 18.84-9.46 18.84A130.48 130.48 0 0 1 696 402z" fill="#142546" p-id="2799"></path></svg>