<?xml version="1.0" standalone="no"?><!DOCTYPE svg PUBLIC "-//W3C//DTD SVG 1.1//EN" "http://www.w3.org/Graphics/SVG/1.1/DTD/svg11.dtd"><svg t="1584178856806" class="icon" viewBox="0 0 1024 1024" version="1.1" xmlns="http://www.w3.org/2000/svg" p-id="2204" xmlns:xlink="http://www.w3.org/1999/xlink" width="200" height="200"><defs><style type="text/css"></style></defs><path d="M267.42 659.82a40.84 40.84 0 1 1-40.82-40.84 40.84 40.84 0 0 1 40.82 40.84M786 650.52a40.84 40.84 0 1 1-40.82-40.84A40.82 40.82 0 0 1 786 650.52M604.8 280.18h-65a22 22 0 0 1 0-44h65a22 22 0 0 1 0 44M396.64 353.54l-104.26 14.26c-23.16 0-45.02-12.9-59.24-34.96-4.44-6.84-0.38-16.84 6.86-16.84h125.5c17.2 0 31.16 16.84 31.16 37.6" fill="#DCD3D4" p-id="2205"></path><path d="M218.44 826.94c-97.6 0-177-79.14-177-176.42s79.4-176.42 177-176.42 176.98 79.14 176.98 176.42-79.4 176.42-176.98 176.42m1.8-320.84c-80.9 0-146.7 64.8-146.7 144.42s65.8 144.42 146.7 144.42 146.68-64.78 146.68-144.42-65.8-144.42-146.68-144.42M737.36 830.2a184.98 184.98 0 1 1 184.98-184.98 185.18 185.18 0 0 1-184.98 184.98m0-338a152.98 152.98 0 1 0 152.98 152.98 153.14 153.14 0 0 0-152.98-152.98" fill="#DDD3D4" p-id="2206"></path><path d="M267.42 657.06a24.78 24.78 0 1 1-24.78-24.8 24.78 24.78 0 0 1 24.78 24.8" fill="#E08476" p-id="2207"></path><path d="M658 332a22.96 22.96 0 1 1-22.96-22.94A22.96 22.96 0 0 1 658 332" fill="#E23C3C" p-id="2208"></path><path d="M628.56 247.8h-65a22 22 0 0 1 0-44h65a22 22 0 0 1 0 44" fill="#E08476" p-id="2209"></path><path d="M419.54 327.62l-104.26 14.24c-23.18 0-45.04-12.9-59.26-34.96-4.44-6.88-0.38-16.9 6.84-16.9h125.5c17.22 0 31.18 16.84 31.18 37.62" fill="#E23C3C" p-id="2210"></path><path d="M761.2 482.12a167 167 0 1 0 167 167 167 167 0 0 0-167-167m0 296.58a128.2 128.2 0 1 1 128.2-128.18 128.2 128.2 0 0 1-128.2 128.18M244.9 496.1a157.7 157.7 0 1 0 157.68 157.7 157.68 157.68 0 0 0-157.68-157.7m0 280A121.04 121.04 0 1 1 366 655.12a121.04 121.04 0 0 1-121.04 121.02" fill="#F3B5AF" p-id="2211"></path><path d="M786 649.12a24.78 24.78 0 1 1-24.78-24.78A24.8 24.8 0 0 1 786 649.12M486 681.84a24.78 24.78 0 1 1-24.78-24.78A24.78 24.78 0 0 1 486 681.84" fill="#E08476" p-id="2212"></path><path d="M940.2 650.52a179.06 179.06 0 0 0-231.26-171.22L660 354.12a34.84 34.84 0 0 0-9.46-55.66 11.64 11.64 0 0 1 8.12-3.32h46.52a40.34 40.34 0 1 0 0-80.66h-44.84a34 34 0 0 0-31.78-22h-65a34 34 0 1 0 0 68h65a34 34 0 0 0 31.78-22h44.88a16.34 16.34 0 1 1 0 32.66h-46.52a35.7 35.7 0 0 0-34 25.24 34.94 34.94 0 0 0 10.46 68.3c1.08 0 2.16 0 3.24-0.18l17.32 44.36h-270.6l-20.24-62L429.8 338v-10.46c0-27.36-19.36-49.6-43.18-49.6h-125.48a20.16 20.16 0 0 0-17.78 10.94 24.28 24.28 0 0 0 0.84 24.44c16.34 25.34 42.26 40.46 69.34 40.46h0.82l26.34-3.6 23.58 72-46.9 78.84a172.38 172.38 0 0 0-157.84 306.5h-33.2v24h306.22v-24h-106.82a173.6 173.6 0 0 0 69.36-70.6l46.2 13.08a69.22 69.22 0 0 0 32.8 1.34l19.32 36.78-22 13.06 12.22 20.64 66-39-12.22-20.66-23.16 13.72-17.52-33.36a69.3 69.3 0 0 0 19.14-101.04l162.72-174.26 8 20.66a178.96 178.96 0 0 0-12.28 319.08h-130.94v24h355.18v-24h-50.4a179.14 179.14 0 0 0 92-156.42m-311.64-414h-65a10 10 0 0 1 0-20h65a10 10 0 0 1 0 20m6.52 104.2a10.96 10.96 0 1 1 10.94-10.96 10.98 10.98 0 0 1-10.94 10.96m-322.32-10.82c-18.32-0.28-35.42-10.36-47.22-27.84h121.08c7.7 0 14.5 6.4 17.52 15.36zM326 533.74A148.94 148.94 0 0 1 385.36 616l-110.1 2.94z m-83.28 271.2A148.42 148.42 0 1 1 305.02 522l-58.12 97.72-4.58 0.12a36.74 36.74 0 0 0-1.7 73.44l130.76 37a148.48 148.48 0 0 1-128.74 74.74m12.78-148.42a12.78 12.78 0 1 1-12.78-12.78 12.8 12.8 0 0 1 12.78 12.78m126.34 51.68l-108.86-30.8a40.18 40.18 0 0 0 2.64-4.5l112.46 13.7a146.82 146.82 0 0 1-6.2 21.52m9.14-45.36l-112.22-13.74a38.48 38.48 0 0 0-2-6.26l113.28-3.02a148.3 148.3 0 0 1 0.98 16.7c0 2.12 0 4.22-0.16 6.32m-52.62-149.74l36-60.5 53.08 162.22-17.26 0.46a172.9 172.9 0 0 0-71.82-102.18m122.22 215.58A45.38 45.38 0 0 1 458 638h2.58a45.38 45.38 0 0 1 0 90.74m37.74-103.54a66.92 66.92 0 0 0-7.74-4.38l17.42-51.44 26 6.62 6-23.26-74.18-19-6 23.24 24.7 6.34-17.26 50.94c-2.24-0.22-4.52-0.34-6.84-0.34h-0.32l-7.8 0.2-59.32-181.28h272l3.76 9.58z m108 25.38a155.16 155.16 0 0 1 89.08-140.24l43.44 111.18a36.74 36.74 0 1 0 22.76-7.7l-43.76-112a154.98 154.98 0 1 1-111.52 148.74m142.22 0a12.78 12.78 0 1 1 12.78 12.78 12.8 12.8 0 0 1-12.78-12.78M928.2 806.94h54.36v24H928.2zM44.54 807.52h54.36v24H44.54z" fill="#142546" p-id="2213"></path><path d="M761.2 789.62v-24a116.42 116.42 0 0 0 23.46-230.44l4.82-23.5a140.4 140.4 0 0 1-28.28 278M461.78 714.1a30.8 30.8 0 1 1 30.8-30.8 30.82 30.82 0 0 1-30.8 30.8m0-37.58a6.8 6.8 0 1 0 6.8 6.78 6.78 6.78 0 0 0-6.8-6.78M244.26 785.62a129.78 129.78 0 0 1-129.34-141.88L138.82 646a105.74 105.74 0 0 0 146 107.4l9.26 22.14a128.98 128.98 0 0 1-49.88 10M148 611.82l-21.82-10A129.24 129.24 0 0 1 194 536.32l9.26 22.12A105.4 105.4 0 0 0 148 611.82M682.7 765.62A140.4 140.4 0 0 1 662 550l16.98 16.98a116.4 116.4 0 0 0 17.22 178.82z" fill="#142546" p-id="2214"></path></svg>